<svg width="24" height="24" viewBox="0 0 24 24" fill="none" xmlns="http://www.w3.org/2000/svg">
<path fill-rule="evenodd" clip-rule="evenodd" d="M6.49998 0.898438C7.05225 0.898438 7.49996 1.34615 7.49996 1.89842V4.89835C7.49996 5.45062 7.05225 5.89833 6.49998 5.89833C5.94771 5.89833 5.5 5.45062 5.5 4.89835V1.89842C5.5 1.34615 5.94771 0.898438 6.49998 0.898438ZM18.4997 0.898438C19.052 0.898438 19.4997 1.34615 19.4997 1.89842V4.89835C19.4997 5.45062 19.052 5.89833 18.4997 5.89833C17.9474 5.89833 17.4998 5.45062 17.4998 4.89835V1.89842C17.4998 1.34615 17.9474 0.898438 18.4997 0.898438Z" fill="url(#paint0_linear_61_4574)"/>
<path fill-rule="evenodd" clip-rule="evenodd" d="M2 5.89838C2 4.24156 3.34312 2.89844 4.99994 2.89844H19.9996C21.6565 2.89844 22.9996 4.24156 22.9996 5.89838V19.8981C22.9996 21.5549 21.6565 22.898 19.9996 22.898H4.99994C3.34312 22.898 2 21.5549 2 19.8981V5.89838ZM3.99996 8.89831V19.8981C3.99996 20.4504 4.44767 20.8981 4.99994 20.8981H19.9996C20.5519 20.8981 20.9996 20.4504 20.9996 19.8981V8.89831H3.99996Z" fill="url(#paint1_linear_61_4574)"/>
<path fill-rule="evenodd" clip-rule="evenodd" d="M7.25 12.8984C7.25 12.208 7.80963 11.6484 8.49997 11.6484H8.50894C9.19929 11.6484 9.75892 12.208 9.75892 12.8984C9.75892 13.5888 9.19929 14.1484 8.50894 14.1484H8.49997C7.80963 14.1484 7.25 13.5888 7.25 12.8984ZM11.2454 12.8984C11.2454 12.208 11.8051 11.6484 12.4954 11.6484H12.5044C13.1947 11.6484 13.7544 12.208 13.7544 12.8984C13.7544 13.5888 13.1947 14.1484 12.5044 14.1484H12.4954C11.8051 14.1484 11.2454 13.5888 11.2454 12.8984ZM15.2408 12.8984C15.2408 12.208 15.8005 11.6484 16.4908 11.6484H16.4998C17.1902 11.6484 17.7498 12.208 17.7498 12.8984C17.7498 13.5888 17.1902 14.1484 16.4998 14.1484H16.4908C15.8005 14.1484 15.2408 13.5888 15.2408 12.8984ZM7.25 16.8983C7.25 16.2079 7.80963 15.6484 8.49997 15.6484H8.50894C9.19929 15.6484 9.75892 16.2079 9.75892 16.8983C9.75892 17.5887 9.19929 18.1483 8.50894 18.1483H8.49997C7.80963 18.1483 7.25 17.5887 7.25 16.8983ZM11.2454 16.8983C11.2454 16.2079 11.8051 15.6484 12.4954 15.6484H12.5044C13.1947 15.6484 13.7544 16.2079 13.7544 16.8983C13.7544 17.5887 13.1947 18.1483 12.5044 18.1483H12.4954C11.8051 18.1483 11.2454 17.5887 11.2454 16.8983Z" fill="url(#paint2_linear_61_4574)"/>
<defs>
<linearGradient id="paint0_linear_61_4574" x1="6.17122" y1="1.61271" x2="19.1112" y2="4.2974" gradientUnits="userSpaceOnUse">
<stop stop-color="#FF3B2F"/>
<stop offset="1" stop-color="#FF5F2D"/>
</linearGradient>
<linearGradient id="paint1_linear_61_4574" x1="3.00683" y1="5.75552" x2="23.1305" y2="7.32119" gradientUnits="userSpaceOnUse">
<stop stop-color="#FF3B2F"/>
<stop offset="1" stop-color="#FF5F2D"/>
</linearGradient>
<linearGradient id="paint2_linear_61_4574" x1="7.75341" y1="12.577" x2="17.7332" y2="13.7715" gradientUnits="userSpaceOnUse">
<stop stop-color="#FF3B2F"/>
<stop offset="1" stop-color="#FF5F2D"/>
</linearGradient>
</defs>
</svg>
