<svg width="24" height="24" viewBox="0 0 24 24" fill="none" xmlns="http://www.w3.org/2000/svg">
<path d="M14.4387 1.77148C14.5107 1.89213 14.5698 2.00961 14.6167 2.12188C14.9402 2.73825 15.0566 3.45124 14.8755 4.11848C14.6846 4.82119 14.1807 5.40202 13.4116 5.70678C13.0705 5.84191 12.9552 5.97154 12.9051 6.04738C12.8431 6.14092 12.8075 6.25791 12.761 6.51316L12.7483 6.58422C12.7087 6.80977 12.6479 7.15634 12.4843 7.48648C12.2832 7.89225 11.9539 8.23851 11.4414 8.5093C10.0356 9.25199 8.13788 8.943 6.43341 7.14202C5.6086 6.27049 5.29985 6.02478 4.7463 5.96635C4.73597 5.96527 4.72565 5.96397 4.71536 5.96245C4.36954 5.91168 3.67259 5.95581 2.88786 6.33759C1.69649 8.09583 1 10.2178 1 12.5016C1 18.4879 5.78124 23.3574 11.7332 23.4997C11.6567 23.4429 11.5881 23.3895 11.5282 23.3408C10.9011 22.871 10.5485 22.2847 10.512 21.6062C10.478 20.9734 10.729 20.3901 11.0031 19.9189C11.4027 19.2317 11.5241 19.0095 11.5869 18.7574C11.6536 18.4898 11.6591 18.1685 11.6591 17.2547C11.6591 16.7509 11.7327 16.2431 11.9583 15.7893C12.1928 15.3173 12.5682 14.952 13.0794 14.7157C14.0357 14.2738 15.4247 14.3044 17.2677 14.6731C17.4794 14.7153 17.702 14.6834 17.9949 14.5628C18.2384 14.4628 18.471 14.3295 18.7575 14.1654C18.8469 14.1142 18.9416 14.06 19.0434 14.0029C19.8453 13.5529 20.9414 13.0179 22.3424 13.5102C22.376 13.522 22.4086 13.5361 22.4402 13.5524C22.573 13.6209 22.7366 13.7221 22.9198 13.8563C22.9745 13.4122 23.0025 12.96 23.0025 12.5016C23.0025 7.2629 19.3415 2.88082 14.4387 1.77148Z" fill="url(#paint0_linear_61_4584)"/>
<path d="M11.9505 1.5C12.7385 1.94802 13.1083 2.4813 13.2054 2.72828C13.2169 2.75756 13.2302 2.78609 13.2453 2.81374C13.428 3.15044 13.4584 3.47479 13.393 3.71572C13.3333 3.93576 13.18 4.14651 12.845 4.2792C12.2855 4.50089 11.8866 4.80301 11.6241 5.19941C11.3734 5.57812 11.2978 5.97389 11.2498 6.23745L11.2424 6.27754C11.1929 6.55005 11.169 6.68088 11.1078 6.80436C11.0629 6.8951 10.978 7.01698 10.7233 7.15155C10.083 7.48977 8.91181 7.52817 7.54729 6.08639C6.75899 5.25344 6.09678 4.5702 4.92155 4.44095C4.80663 4.42476 4.68052 4.41441 4.54492 4.4112C6.49319 2.61497 9.09385 1.51267 11.9505 1.5Z" fill="url(#paint1_linear_61_4584)"/>
<path d="M22.566 15.5765C22.2362 15.2452 21.9441 15.0351 21.779 14.9406C21.0737 14.7129 20.5153 14.9368 19.7935 15.3418C19.7242 15.3808 19.6507 15.4229 19.5742 15.4668C19.2731 15.6399 18.9235 15.8407 18.5779 15.9828C18.118 16.172 17.5751 16.3004 16.9657 16.1785C15.1537 15.8161 14.1975 15.8899 13.7223 16.1095C13.5177 16.204 13.4057 16.3241 13.332 16.4727C13.2491 16.6393 13.1932 16.8873 13.1932 17.255V17.3575C13.1934 18.13 13.1936 18.6548 13.0754 19.129C12.9535 19.6177 12.7113 20.0341 12.3744 20.6129L12.3291 20.6908C12.1087 21.0697 12.0338 21.3367 12.0438 21.5241C12.0512 21.6604 12.1073 21.8604 12.4563 22.1191C12.4663 22.1264 12.4761 22.1341 12.4857 22.142C12.8206 22.4164 13.5243 22.8847 14.372 23.2468C18.3068 22.3823 21.4517 19.4115 22.566 15.5765Z" fill="url(#paint2_linear_61_4584)"/>
<defs>
<linearGradient id="paint0_linear_61_4584" x1="2.05492" y1="4.87551" x2="23.1486" y2="6.45823" gradientUnits="userSpaceOnUse">
<stop stop-color="#FF3B2F"/>
<stop offset="1" stop-color="#FF5F2D"/>
</linearGradient>
<linearGradient id="paint1_linear_61_4584" x1="4.97066" y1="2.33517" x2="13.4244" y2="3.28659" gradientUnits="userSpaceOnUse">
<stop stop-color="#FF3B2F"/>
<stop offset="1" stop-color="#FF5F2D"/>
</linearGradient>
<linearGradient id="paint2_linear_61_4584" x1="12.5475" y1="16.0492" x2="22.6059" y2="16.9832" gradientUnits="userSpaceOnUse">
<stop stop-color="#FF3B2F"/>
<stop offset="1" stop-color="#FF5F2D"/>
</linearGradient>
</defs>
</svg>
