<svg width="24" height="24" viewBox="0 0 24 24" fill="none" xmlns="http://www.w3.org/2000/svg">
<path d="M20.2675 7.735L20.973 11.8148C21.1492 12.8338 20.3656 13.7658 19.3326 13.7658H14.1515C13.638 13.7658 13.247 14.2267 13.3301 14.734L13.9928 18.7786C14.1005 19.4356 14.0697 20.108 13.9025 20.7525C13.764 21.2864 13.3521 21.715 12.8104 21.8891L12.6654 21.9356C12.338 22.0408 11.9807 22.0163 11.672 21.8676C11.3323 21.7039 11.0837 21.4053 10.9916 21.0501L10.5159 19.2163C10.3645 18.6328 10.1441 18.0695 9.85975 17.5374C9.44439 16.7598 8.80221 16.1375 8.13468 15.5623L6.69594 14.3225C6.29028 13.9729 6.07724 13.4494 6.1234 12.9156L6.93557 3.5229C7.01006 2.6614 7.73036 2 8.59414 2H13.2428C16.7241 2 19.6951 4.4256 20.2675 7.735Z" fill="#707881" stroke="#707881" stroke-width="1.5"/>
<path fill-rule="evenodd" clip-rule="evenodd" d="M2.96767 14.5149C3.36893 14.5322 3.71261 14.2304 3.74721 13.8302L4.71881 2.5937C4.78122 1.8719 4.21268 1.2498 3.48671 1.2498C2.80289 1.2498 2.25 1.8046 2.25 2.4871V13.7656C2.25 14.1672 2.5664 14.4976 2.96767 14.5149Z" fill="#707881" stroke="#707881" stroke-width="1.5"/>
</svg>
