<svg width="29" height="29" viewBox="0 0 29 29" fill="none" xmlns="http://www.w3.org/2000/svg">
<path fill-rule="evenodd" clip-rule="evenodd" d="M14.4948 18.7293C16.8305 18.7293 18.724 16.8359 18.724 14.5002C18.724 12.1645 16.8305 10.271 14.4948 10.271C12.1591 10.271 10.2656 12.1645 10.2656 14.5002C10.2656 16.8359 12.1591 18.7293 14.4948 18.7293ZM14.4948 16.3059C13.4976 16.3059 12.6891 15.4974 12.6891 14.5002C12.6891 13.5029 13.4976 12.6944 14.4948 12.6944C15.492 12.6944 16.3005 13.5029 16.3005 14.5002C16.3005 15.4974 15.492 16.3059 14.4948 16.3059Z" fill="#FF5A2E"/>
<path fill-rule="evenodd" clip-rule="evenodd" d="M14.4991 6.0415C8.68559 6.0415 4.73182 9.19411 2.64454 11.4546C1.03515 13.1975 1.03515 15.8022 2.64454 17.5451C4.73182 19.8056 8.68559 22.9582 14.4991 22.9582C20.3127 22.9582 24.2665 19.8056 26.3537 17.5451C27.9631 15.8022 27.9631 13.1975 26.3537 11.4546C24.2665 9.19411 20.3127 6.0415 14.4991 6.0415ZM4.42004 13.0941C6.26836 11.0924 9.62581 8.45817 14.4991 8.45817C19.3725 8.45817 22.7299 11.0924 24.5782 13.0941C25.3327 13.9111 25.3327 15.0885 24.5782 15.9056C22.7299 17.9073 19.3725 20.5415 14.4991 20.5415C9.62581 20.5415 6.26836 17.9073 4.42004 15.9056C3.66553 15.0885 3.66553 13.9111 4.42004 13.0941Z" fill="#FF5A2E"/>
</svg>
