<svg width="30" height="29" viewBox="0 0 30 29" fill="none" xmlns="http://www.w3.org/2000/svg">
<path d="M5.55252 8.99121C4.40671 9.80924 3.47773 10.6839 2.76587 11.4549C1.15649 13.1978 1.15649 15.8025 2.76587 17.5453C4.85314 19.8059 8.80689 22.9584 14.6204 22.9584C16.1862 22.9584 17.6169 22.7298 18.9127 22.3515L16.9035 20.3423C16.1835 20.4703 15.4225 20.5418 14.6204 20.5418C9.7471 20.5418 6.38967 17.9076 4.54136 15.9059C3.78686 15.0888 3.78686 13.9114 4.54136 13.0944C5.24082 12.3369 6.15639 11.4888 7.28845 10.7272L5.55252 8.99121Z" fill="#FF5A2E"/>
<path d="M10.4265 13.8696C10.3958 14.0753 10.3799 14.2857 10.3799 14.4999C10.3799 16.8356 12.2733 18.729 14.609 18.729C14.8232 18.729 15.0336 18.7131 15.2393 18.6824L10.4265 13.8696Z" fill="#FF5A2E"/>
<path d="M18.8045 15.0404L14.0693 10.3052C14.2462 10.2826 14.4265 10.271 14.6096 10.271C16.9453 10.271 18.8387 12.1644 18.8387 14.5001C18.8387 14.6832 18.8271 14.8635 18.8045 15.0404Z" fill="#FF5A2E"/>
<path d="M22.0041 18.2374C23.1117 17.4851 24.0096 16.6517 24.6981 15.906C25.4526 15.089 25.4526 13.9116 24.6981 13.0945C22.8498 11.0928 19.4924 8.45865 14.6191 8.45865C13.845 8.45865 13.1093 8.52509 12.4117 8.64491L10.3958 6.62902C11.6733 6.26263 13.0811 6.04199 14.6191 6.04199C20.4326 6.04199 24.3863 9.19458 26.4736 11.455C28.083 13.1979 28.083 15.8026 26.4736 17.5455C25.7725 18.3048 24.8608 19.1648 23.7388 19.9721L22.0041 18.2374Z" fill="#FF5A2E"/>
<path d="M2.54239 4.13501C2.0705 3.66313 2.0705 2.89806 2.54239 2.42618C3.01427 1.95429 3.77934 1.95429 4.25122 2.42618L26.6999 24.8749C27.1719 25.3467 27.1719 26.1119 26.6999 26.5837C26.228 27.0556 25.4629 27.0556 24.9911 26.5837L2.54239 4.13501Z" fill="#FF5A2E"/>
</svg>
