<svg width="24" height="24" viewBox="0 0 24 24" fill="none" xmlns="http://www.w3.org/2000/svg">
<path d="M19.6278 1.19422C20.5808 0.974222 21.5316 1.56833 21.7516 2.52128L22.6017 6.20352C22.6538 6.42916 22.6799 6.54198 22.6543 6.638C22.6337 6.71549 22.5903 6.78499 22.5297 6.83749C22.4546 6.90255 22.3417 6.92859 22.1161 6.98069L2.04162 11.6152L1.04578 7.30163C0.825782 6.34868 1.41994 5.3978 2.37284 5.17781L19.6278 1.19422ZM2.4445 8.60791C2.39567 8.68605 2.37125 8.72513 2.35653 8.7672C2.34146 8.81028 2.33387 8.85562 2.3341 8.90126C2.33432 8.94583 2.34468 8.99073 2.36541 9.08051C2.468 9.52493 2.51929 9.74714 2.62702 9.83391C2.73579 9.92151 2.88238 9.94604 3.01374 9.89863C3.14385 9.85166 3.2647 9.65826 3.5064 9.27146L5.22217 6.52563C5.46385 6.13885 5.5847 5.94546 5.56988 5.80793C5.55491 5.66907 5.4686 5.54807 5.34217 5.48871C5.21697 5.42993 4.99477 5.48123 4.55037 5.58384C4.46059 5.60457 4.4157 5.61493 4.37554 5.63427C4.33442 5.65408 4.29699 5.68078 4.26488 5.71321C4.23352 5.74488 4.2091 5.78395 4.16028 5.86209L2.4445 8.60791ZM6.09456 8.67395C5.85287 9.06074 5.73202 9.25413 5.74685 9.39166C5.76181 9.53051 5.84811 9.65151 5.97453 9.71087C6.09974 9.76966 6.32194 9.71836 6.76635 9.61577C6.85614 9.59504 6.90103 9.58467 6.94119 9.56533C6.98231 9.54553 7.01974 9.51883 7.05185 9.4864C7.08322 9.45472 7.10764 9.41565 7.15647 9.3375L9.5358 5.52974C9.77749 5.14295 9.89834 4.94956 9.88352 4.81204C9.86855 4.67317 9.78224 4.55217 9.65581 4.49282C9.53061 4.43403 9.30841 4.48533 8.86401 4.58794C8.77423 4.60867 8.72934 4.61903 8.68918 4.63837C8.64806 4.65818 8.61063 4.68488 8.57852 4.71731C8.54716 4.74898 8.52274 4.78805 8.47392 4.8662L6.09456 8.67395ZM10.4082 7.67808C10.1665 8.06486 10.0457 8.25825 10.0605 8.39578C10.0755 8.53464 10.1618 8.65564 10.2882 8.715C10.4134 8.77378 10.6356 8.72248 11.08 8.61987C11.1698 8.59914 11.2147 8.58878 11.2548 8.56944C11.296 8.54963 11.3334 8.52293 11.3655 8.4905C11.3969 8.45883 11.4213 8.41976 11.4701 8.34162L13.8495 4.53386C14.0911 4.14708 14.212 3.95368 14.1972 3.81615C14.1822 3.6773 14.0959 3.55631 13.9695 3.49695C13.8443 3.43816 13.6221 3.48945 13.1777 3.59205C13.0879 3.61277 13.043 3.62314 13.0028 3.64248C12.9617 3.66229 12.9243 3.68898 12.8922 3.72142C12.8608 3.75309 12.8364 3.79217 12.7875 3.87031L10.4082 7.67808ZM14.7218 6.68218C14.4802 7.06896 14.3593 7.26236 14.3741 7.39988C14.3891 7.53874 14.4754 7.65974 14.6018 7.7191C14.727 7.77788 14.9492 7.72658 15.3936 7.62398C15.4834 7.60325 15.5283 7.59288 15.5685 7.57354C15.6096 7.55374 15.647 7.52704 15.6791 7.4946C15.7105 7.46293 15.7349 7.42386 15.7837 7.34572L18.1631 3.53797C18.4048 3.15118 18.5256 2.95778 18.5108 2.82025C18.4958 2.6814 18.4095 2.56041 18.2831 2.50105C18.1579 2.44226 17.9357 2.49355 17.4913 2.59615C17.4015 2.61687 17.3566 2.62724 17.3165 2.64658C17.2753 2.66639 17.2379 2.69308 17.2058 2.72552C17.1744 2.75719 17.15 2.79627 17.1012 2.87442L14.7218 6.68218ZM19.0354 5.68631C18.7937 6.0731 18.6729 6.26649 18.6877 6.40401C18.7027 6.54287 18.789 6.66387 18.9154 6.72323C19.0406 6.78202 19.2628 6.73072 19.7072 6.62813C19.797 6.6074 19.8419 6.59704 19.882 6.5777C19.9232 6.55789 19.9606 6.53119 19.9927 6.49876C20.0241 6.46709 20.0485 6.42801 20.0973 6.34987L21.1496 4.66589C21.1984 4.58775 21.2228 4.54868 21.2376 4.5066C21.2526 4.46352 21.2602 4.41818 21.26 4.37254C21.2598 4.32796 21.2494 4.28307 21.2287 4.19329C21.1261 3.74889 21.0748 3.52669 20.9671 3.43993C20.8583 3.35232 20.7117 3.32779 20.5803 3.37521C20.4502 3.42217 20.3294 3.61556 20.0877 4.00234L19.0354 5.68631ZM21.5213 23.1257H3.81247C2.83441 23.1257 2.04162 22.3329 2.04162 21.3549V11.6152L22.6439 11.6153C22.8754 11.6153 22.9912 11.6153 23.079 11.6618C23.1499 11.6993 23.2078 11.7573 23.2454 11.8281C23.2918 11.916 23.2919 12.0317 23.2919 12.2633L23.2921 21.3549C23.2921 22.3329 22.4993 23.1257 21.5213 23.1257ZM8.49907 12.5007C8.40692 12.5007 8.36085 12.5007 8.31737 12.5105C8.27285 12.5206 8.23037 12.5382 8.19179 12.5626C8.1541 12.5864 8.12152 12.6189 8.05636 12.6841L5.76689 14.9736C5.44438 15.2961 5.28312 15.4573 5.26663 15.5947C5.24998 15.7333 5.30685 15.8706 5.41667 15.9569C5.52545 16.0424 5.7535 16.0424 6.20961 16.0424C6.30176 16.0424 6.34783 16.0424 6.39132 16.0326C6.43584 16.0225 6.47831 16.0049 6.5169 15.9805C6.55458 15.9567 6.58716 15.9242 6.65232 15.859L8.94179 13.5695C9.2643 13.247 9.42556 13.0858 9.44205 12.9484C9.4587 12.8098 9.40183 12.6725 9.29201 12.5862C9.18323 12.5007 8.95518 12.5007 8.49907 12.5007ZM12.9262 12.5007C12.834 12.5007 12.788 12.5007 12.7445 12.5105C12.7 12.5206 12.6575 12.5382 12.6189 12.5626C12.5812 12.5864 12.5486 12.6189 12.4835 12.6841L10.194 14.9736C9.87148 15.2961 9.71023 15.4573 9.69374 15.5947C9.67708 15.7333 9.73396 15.8707 9.84379 15.9569C9.95256 16.0424 10.1806 16.0424 10.6367 16.0424C10.7288 16.0424 10.7749 16.0424 10.8184 16.0326C10.8629 16.0225 10.9054 16.0049 10.9439 15.9805C10.9816 15.9567 11.0142 15.9242 11.0794 15.859L13.3689 13.5695C13.6914 13.247 13.8526 13.0858 13.8691 12.9484C13.8858 12.8098 13.8289 12.6724 13.719 12.5862C13.6103 12.5007 13.3822 12.5007 12.9262 12.5007ZM17.3533 12.5007C17.2611 12.5007 17.2151 12.5007 17.1716 12.5105C17.1271 12.5206 17.0846 12.5382 17.046 12.5626C17.0083 12.5864 16.9757 12.6189 16.9106 12.6841L14.6211 14.9736C14.2985 15.2961 14.1373 15.4573 14.1208 15.5947C14.1041 15.7333 14.161 15.8707 14.2708 15.9569C14.3796 16.0424 14.6077 16.0424 15.0638 16.0424C15.1559 16.0424 15.202 16.0424 15.2455 16.0326C15.29 16.0225 15.3325 16.0049 15.371 15.9805C15.4087 15.9567 15.4413 15.9242 15.5065 15.859L17.796 13.5695C18.1185 13.247 18.2797 13.0858 18.2962 12.9484C18.3129 12.8098 18.256 12.6724 18.1461 12.5862C18.0374 12.5007 17.8093 12.5007 17.3533 12.5007ZM21.7793 12.5007C21.6882 12.5007 21.6426 12.5007 21.5995 12.5103C21.5544 12.5204 21.5113 12.5383 21.4722 12.5631C21.435 12.5867 21.4028 12.6189 21.3383 12.6834L19.0481 14.9736C18.7256 15.2961 18.5644 15.4573 18.5479 15.5947C18.5312 15.7333 18.5881 15.8707 18.6979 15.9569C18.8067 16.0424 19.0347 16.0424 19.4908 16.0424C19.583 16.0424 19.629 16.0424 19.6725 16.0326C19.717 16.0225 19.7595 16.0049 19.7981 15.9805C19.8358 15.9567 19.8684 15.9242 19.9335 15.859L22.2189 13.5737C22.2843 13.5083 22.317 13.4756 22.3408 13.4378C22.3647 13.4 22.382 13.3584 22.3921 13.3149C22.4022 13.2713 22.4025 13.2246 22.403 13.1313C22.4042 12.9193 22.4047 12.8133 22.367 12.7321C22.3275 12.6472 22.2595 12.5789 22.1749 12.539C22.0939 12.5007 21.989 12.5007 21.7793 12.5007ZM4.07201 12.5007C3.97987 12.5007 3.9338 12.5007 3.89032 12.5105C3.8458 12.5206 3.80332 12.5382 3.76474 12.5626C3.72706 12.5864 3.69448 12.6189 3.62932 12.6841L3.11063 13.2027C3.04547 13.2679 3.01288 13.3005 2.98907 13.3382C2.9647 13.3768 2.9471 13.4192 2.93705 13.4638C2.92724 13.5072 2.92724 13.5533 2.92724 13.6455C2.92724 14.1016 2.92724 14.3296 3.01269 14.4384C3.09896 14.5482 3.23627 14.6051 3.37493 14.5884C3.51227 14.5719 3.67353 14.4107 3.99604 14.0882L4.51471 13.5695C4.83721 13.247 4.99845 13.0858 5.01495 12.9484C5.03161 12.8098 4.97473 12.6724 4.86489 12.5862C4.75612 12.5007 4.52808 12.5007 4.07201 12.5007Z" fill="url(#paint0_linear_61_4567)"/>
<defs>
<linearGradient id="paint0_linear_61_4567" x1="2.0688" y1="4.28805" x2="23.4397" y2="5.89425" gradientUnits="userSpaceOnUse">
<stop stop-color="#FF3B2F"/>
<stop offset="1" stop-color="#FF5F2D"/>
</linearGradient>
</defs>
</svg>
