<svg width="24" height="24" viewBox="0 0 24 24" fill="none" xmlns="http://www.w3.org/2000/svg">
<path d="M20.2675 16.265L20.973 12.1852C21.1492 11.1662 20.3656 10.2342 19.3326 10.2342H14.1515C13.638 10.2342 13.247 9.77328 13.3301 9.26598L13.9928 5.22142C14.1005 4.56435 14.0697 3.892 13.9025 3.24752C13.764 2.71364 13.3521 2.28495 12.8104 2.11093L12.6654 2.06435C12.338 1.95918 11.9807 1.98365 11.672 2.13239C11.3323 2.29611 11.0837 2.59473 10.9916 2.94989L10.5159 4.78374C10.3645 5.36723 10.1441 5.93045 9.85975 6.46262C9.44439 7.24017 8.80221 7.86246 8.13468 8.43769L6.69594 9.67749C6.29028 10.0271 6.07724 10.5506 6.1234 11.0844L6.93557 20.4771C7.01006 21.3386 7.73036 22 8.59414 22H13.2428C16.7241 22 19.6951 19.5744 20.2675 16.265Z" fill="#707881" stroke="#707881" stroke-width="1.5"/>
<path fill-rule="evenodd" clip-rule="evenodd" d="M2.96767 9.48508C3.36893 9.46777 3.71261 9.76963 3.74721 10.1698L4.71881 21.4063C4.78122 22.1281 4.21268 22.7502 3.48671 22.7502C2.80289 22.7502 2.25 22.1954 2.25 21.5129V10.2344C2.25 9.83275 2.5664 9.5024 2.96767 9.48508Z" fill="#707881" stroke="#707881" stroke-width="1.5"/>
</svg>
