<svg width="30" height="30" viewBox="0 0 30 30" fill="none" xmlns="http://www.w3.org/2000/svg">
<path d="M26.25 10L21.799 12.4728C19.3175 13.8514 18.0768 14.5407 16.7628 14.811C15.5998 15.0501 14.4002 15.0501 13.2372 14.811C11.9233 14.5407 10.6825 13.8514 8.201 12.4728L3.75 10M7.75 23.75H22.25C23.6501 23.75 24.3503 23.75 24.885 23.4775C25.3554 23.2379 25.7379 22.8554 25.9775 22.385C26.25 21.8502 26.25 21.1501 26.25 19.75V10.25C26.25 8.84987 26.25 8.1498 25.9775 7.61502C25.7379 7.14461 25.3554 6.76216 24.885 6.52249C24.3503 6.25 23.6501 6.25 22.25 6.25H7.75C6.34987 6.25 5.6498 6.25 5.11503 6.52249C4.64461 6.76216 4.26216 7.14461 4.02249 7.61502C3.75 8.1498 3.75 8.84986 3.75 10.25V19.75C3.75 21.1501 3.75 21.8502 4.02249 22.385C4.26216 22.8554 4.64461 23.2379 5.11503 23.4775C5.6498 23.75 6.34986 23.75 7.75 23.75Z" stroke="#FF5A2E" stroke-width="2.83333" stroke-linecap="round" stroke-linejoin="round"/>
</svg>
