<svg width="32" height="32" viewBox="0 0 32 32" fill="none" xmlns="http://www.w3.org/2000/svg">
<g clip-path="url(#clip0_61_11168)">
<path d="M16 14.749C17.0583 14.749 18.2958 15.1633 19.5898 15.9209C20.8754 16.6736 22.1664 17.7365 23.3164 18.9561C24.4658 20.1751 25.4588 21.5331 26.1602 22.8652C26.8666 24.2071 27.2499 25.4714 27.25 26.5146C27.25 27.3928 26.9241 28.0384 26.3516 28.4834C25.7551 28.947 24.8161 29.249 23.5166 29.249C22.1342 29.249 20.9724 28.8935 19.7842 28.5029C18.6238 28.1215 17.3786 27.6816 16 27.6816C14.6316 27.6817 13.3922 28.1221 12.2344 28.5029C11.0483 28.893 9.88069 29.249 8.48438 29.249C7.18487 29.249 6.24586 28.947 5.64941 28.4834C5.07685 28.0384 4.75 27.3928 4.75 26.5146C4.75011 25.4714 5.13436 24.2071 5.84082 22.8652C6.54221 21.5331 7.53515 20.1751 8.68457 18.9561C9.83448 17.7366 11.1247 16.6736 12.4102 15.9209C13.7042 15.1632 14.9417 14.7491 16 14.749ZM2.49707 10.8076C3.81729 10.4921 5.50471 11.5198 6.07715 13.4268C6.64684 15.3248 5.76951 16.8877 4.50293 17.1904C3.18267 17.506 1.49524 16.4783 0.922852 14.5713C0.353292 12.6734 1.23065 11.1105 2.49707 10.8076ZM25.9229 13.4277C26.4959 11.5203 28.1828 10.4931 29.5029 10.8086C30.6905 11.0924 31.5356 12.4837 31.167 14.2207L31.0771 14.5723C30.504 16.4794 28.8171 17.5069 27.4971 17.1914C26.3098 16.9075 25.4646 15.516 25.833 13.7793L25.9229 13.4277ZM9.60156 2.81055C10.2729 2.63407 11.056 2.83728 11.8018 3.45215C12.5453 4.06532 13.1945 5.05059 13.5283 6.27441C13.8622 7.49871 13.8012 8.66928 13.4707 9.56152C13.1606 10.3989 12.6395 10.9398 12.0244 11.1494L11.8994 11.1875C11.2285 11.3643 10.4452 11.162 9.69922 10.5469C8.95544 9.93357 8.30645 8.9476 7.97266 7.72363C7.6388 6.49932 7.69981 5.32877 8.03027 4.43652C8.36119 3.54321 8.9324 2.9866 9.60156 2.81055ZM20.1992 3.45117C20.945 2.83626 21.7282 2.6338 22.3994 2.81055C23.0688 2.98688 23.6398 3.54419 23.9707 4.4375C24.301 5.3296 24.3621 6.49952 24.0283 7.72363C23.6945 8.94768 23.0455 9.93368 22.3018 10.5469C21.556 11.1617 20.7729 11.364 20.1016 11.1875C19.4323 11.0114 18.8612 10.455 18.5303 9.56152C18.1998 8.66928 18.1388 7.49871 18.4727 6.27441C18.8065 5.05045 19.4555 4.0644 20.1992 3.45117Z" stroke="#102031" stroke-opacity="0.2" stroke-width="1.5"/>
</g>
<defs>
<clipPath id="clip0_61_11168">
<rect width="32" height="32" fill="white"/>
</clipPath>
</defs>
</svg>
