<svg width="20" height="18" viewBox="0 0 20 18" fill="none" xmlns="http://www.w3.org/2000/svg">
<path fill-rule="evenodd" clip-rule="evenodd" d="M2.5003 15.3225C2.5003 12.2956 6.89835 7.50028 10.0003 7.50028C13.1023 7.50028 17.5003 12.2956 17.5003 15.3225C17.5003 16.6858 16.453 17.5003 14.698 17.5003C13.7045 17.5003 12.8842 17.2299 12.1056 16.9732C11.4023 16.7413 10.7328 16.5206 10.0003 16.5206C9.27742 16.5206 8.61487 16.7393 7.91582 16.97C7.13523 17.2276 6.30911 17.5003 5.30264 17.5003C3.54757 17.5003 2.5003 16.6858 2.5003 15.3225ZM1.45186 5.04949C2.58936 4.77762 3.84093 5.65418 4.24718 7.0077C4.65343 8.36121 4.06085 9.67879 2.92335 9.95067C1.78585 10.2225 0.534284 9.34598 0.128034 7.99246C-0.278216 6.63895 0.314362 5.32137 1.45186 5.04949ZM8.90733 2.5491C9.36983 4.2452 8.76515 5.87801 7.55655 6.19598C6.34835 6.51434 4.99327 5.39715 4.53077 3.70106C4.06827 2.00496 4.67296 0.37215 5.88155 0.0541816C7.09014 -0.263787 8.44483 0.85301 8.90733 2.5491ZM15.753 7.00809C16.1597 5.65457 17.4108 4.77801 18.5483 5.04988C19.6859 5.32176 20.2784 6.63934 19.8722 7.99285C19.4655 9.34637 18.2144 10.2229 17.0769 9.95106C15.9394 9.67918 15.3468 8.3616 15.753 7.00809ZM15.4698 3.70106C15.0073 5.39715 13.6526 6.51395 12.4441 6.19598C11.2355 5.87801 10.6308 4.2452 11.0933 2.5491C11.5558 0.85301 12.9105 -0.264178 14.1191 0.0541816C15.3276 0.372541 15.9323 2.00496 15.4698 3.70106ZM9.41125 15.1318L12.2778 13.4394C12.7525 13.1591 12.7525 12.4335 12.2778 12.1532L9.41125 10.4608C8.94984 10.1884 8.38281 10.543 8.38281 11.1039V14.4887C8.38281 15.0497 8.94984 15.4042 9.41125 15.1318Z" fill="white"/>
</svg>
