<svg fill="none" xmlns="http://www.w3.org/2000/svg" viewBox="30 29 190.5 191" style="max-height: 500px" width="190.5" height="191"><g clip-path="url(#a)"><path d="M202.702 30H47.298C37.744 30 30 37.744 30 47.298v155.404C30 212.256 37.744 220 47.298 220h155.404c9.554 0 17.298-7.744 17.298-17.298V47.298C220 37.744 212.256 30 202.702 30Z" fill="#082326"/><path d="M166.42 99.54H83.58c-14.061 0-25.46 11.399-25.46 25.46 0 14.061 11.399 25.46 25.46 25.46h82.84c14.061 0 25.46-11.399 25.46-25.46 0-14.061-11.399-25.46-25.46-25.46Z" fill="url(#b)"/></g><defs><linearGradient gradientUnits="userSpaceOnUse" y2="125" y1="125" x2="191.88" x1="58.12" id="b"><stop stop-color="#8BD5A3"/><stop stop-color="#06B5E2" offset="1"/></linearGradient><clipPath id="a"><path d="M30 30h190v190H30z" fill="#fff"/></clipPath></defs></svg>