<svg width="32" height="32" viewBox="0 0 32 32" fill="none" xmlns="http://www.w3.org/2000/svg">
<rect width="32" height="32" rx="16" fill="#A74343"/>
<rect width="32" height="32" rx="16" fill="url(#paint0_linear_61_8831)"/>
<g clip-path="url(#clip0_61_8831)">
<path fill-rule="evenodd" clip-rule="evenodd" d="M8.50225 22.5721C8.50225 19.5451 12.9003 14.7498 16.0023 14.7498C19.1042 14.7498 23.5023 19.5451 23.5023 22.5721C23.5023 23.9353 22.455 24.7498 20.6999 24.7498C19.7064 24.7498 18.8862 24.4794 18.1076 24.2227C17.4042 23.9908 16.7348 23.7701 16.0023 23.7701C15.2794 23.7701 14.6168 23.9888 13.9178 24.2195C13.1372 24.4771 12.3111 24.7498 11.3046 24.7498C9.54952 24.7498 8.50225 23.9353 8.50225 22.5721ZM7.45382 12.299C8.59132 12.0271 9.84288 12.9037 10.2491 14.2572C10.6554 15.6107 10.0628 16.9283 8.9253 17.2002C7.7878 17.4721 6.53624 16.5955 6.12999 15.242C5.72374 13.8885 6.31632 12.5709 7.45382 12.299ZM14.9093 9.79862C15.3718 11.4947 14.7671 13.1275 13.5585 13.4455C12.3503 13.7638 10.9952 12.6467 10.5327 10.9506C10.0702 9.25447 10.6749 7.62166 11.8835 7.30369C13.0921 6.98572 14.4468 8.10252 14.9093 9.79862ZM21.755 14.2576C22.1616 12.9041 23.4128 12.0275 24.5503 12.2994C25.6878 12.5713 26.2804 13.8888 25.8741 15.2424C25.4675 16.5959 24.2163 17.4724 23.0788 17.2006C21.9413 16.9287 21.3487 15.6111 21.755 14.2576ZM21.4718 10.9506C21.0093 12.6467 19.6546 13.7635 18.446 13.4455C17.2374 13.1275 16.6327 11.4947 17.0952 9.79862C17.5577 8.10252 18.9124 6.98533 20.121 7.30369C21.3296 7.62205 21.9343 9.25447 21.4718 10.9506ZM15.4132 22.3813L18.2797 20.689C18.7544 20.4086 18.7544 19.683 18.2797 19.4027L15.4132 17.7103C14.9518 17.4379 14.3848 17.7925 14.3848 18.3534V21.7382C14.3848 22.2992 14.9518 22.6538 15.4132 22.3813Z" fill="white"/>
</g>
<defs>
<linearGradient id="paint0_linear_61_8831" x1="1.53425" y1="4.57143" x2="32.2168" y2="6.84492" gradientUnits="userSpaceOnUse">
<stop stop-color="#FF3B2F"/>
<stop offset="1" stop-color="#FF5F2D"/>
</linearGradient>
<clipPath id="clip0_61_8831">
<rect width="20" height="20" fill="white" transform="translate(6 6)"/>
</clipPath>
</defs>
</svg>
