<svg xmlns="http://www.w3.org/2000/svg" width="32" height="32" viewBox="0 0 32 32" fill="none">
<g clip-path="url(#clip0_61_11165)">
<path d="M16.0005 13.9995C11.0374 13.9995 4.00048 21.672 4.00048 26.5151C4.00048 28.6963 5.67611 29.9995 8.48423 29.9995C11.5367 29.9995 13.5524 28.432 16.0005 28.432C18.4699 28.432 20.4911 29.9995 23.5167 29.9995C26.3249 29.9995 28.0005 28.6963 28.0005 26.5151C28.0005 21.672 20.9636 13.9995 16.0005 13.9995ZM6.79548 13.2113C6.14548 11.0457 4.14298 9.64321 2.32298 10.0782C0.50298 10.5132 -0.445145 12.6213 0.204855 14.787C0.854855 16.9526 2.85736 18.3551 4.67736 17.9201C6.49736 17.4851 7.44548 15.377 6.79548 13.2113ZM12.0905 11.9126C14.0242 11.4038 14.9917 8.79134 14.2517 6.07759C13.5117 3.36384 11.3442 1.57696 9.41048 2.08571C7.47673 2.59446 6.50923 5.20696 7.24923 7.92071C7.98923 10.6345 10.1574 12.422 12.0905 11.9126ZM29.6774 10.0788C27.8574 9.64384 25.8555 11.0463 25.2049 13.212C24.5549 15.3776 25.503 17.4857 27.323 17.9207C29.143 18.3557 31.1449 16.9532 31.7955 14.7876C32.4455 12.622 31.4974 10.5138 29.6774 10.0788ZM19.9105 11.9126C21.8442 12.4213 24.0117 10.6345 24.7517 7.92071C25.4917 5.20696 24.5242 2.59509 22.5905 2.08571C20.6567 1.57634 18.4892 3.36384 17.7492 6.07759C17.0092 8.79134 17.9767 11.4038 19.9105 11.9126Z" fill="#f04612"/>
</g>
<defs fill="#000000">
<clipPath id="clip0_61_11165" fill="#000000">
<rect width="32" height="32" fill="white"/>
</clipPath>
</defs>
</svg>