<svg width="162" height="44" viewBox="0 0 162 44" fill="none" xmlns="http://www.w3.org/2000/svg">
<g clip-path="url(#clip0_61_483)">
<path fill-rule="evenodd" clip-rule="evenodd" d="M5.55377 31.5285C5.55377 27.2309 11.798 20.4226 16.2021 20.4226C20.6062 20.4226 26.8504 27.2309 26.8504 31.5285C26.8504 33.4641 25.3635 34.6204 22.8717 34.6204C21.4612 34.6204 20.2967 34.2365 19.1912 33.872C18.1925 33.5428 17.2421 33.2295 16.2021 33.2295C15.1758 33.2295 14.2351 33.5399 13.2426 33.8675C12.1343 34.2333 10.9614 34.6204 9.53247 34.6204C7.04066 34.6204 5.55377 33.4641 5.55377 31.5285ZM4.06523 16.9431C5.68022 16.5571 7.45716 17.8016 8.03394 19.7233C8.61073 21.645 7.7694 23.5156 6.1544 23.9016C4.53941 24.2876 2.76247 23.0431 2.18569 21.1214C1.6089 19.1997 2.45023 17.3291 4.06523 16.9431ZM14.6503 13.3931C15.307 15.8012 14.4485 18.1194 12.7325 18.5708C11.0171 19.0228 9.09323 17.4367 8.43658 15.0286C7.77994 12.6205 8.63846 10.3023 10.3544 9.85085C12.0703 9.39941 13.9937 10.985 14.6503 13.3931ZM24.3697 19.7238C24.947 17.8022 26.7234 16.5576 28.3384 16.9436C29.9534 17.3296 30.7947 19.2003 30.2179 21.122C29.6406 23.0437 27.8642 24.2882 26.2492 23.9022C24.6342 23.5162 23.7929 21.6455 24.3697 19.7238ZM23.9676 15.0286C23.311 17.4367 21.3876 19.0223 19.6717 18.5708C17.9557 18.1194 17.0972 15.8012 17.7539 13.3931C18.4105 10.985 20.3339 9.39885 22.0498 9.85085C23.7657 10.3029 24.6243 12.6205 23.9676 15.0286ZM15.3664 31.2574L19.4362 28.8546C20.1102 28.4566 20.1102 27.4264 19.4362 27.0284L15.3664 24.6256C14.7113 24.2389 13.9062 24.7423 13.9062 25.5387V30.3443C13.9062 31.1407 14.7113 31.6442 15.3664 31.2574Z" fill="url(#paint0_linear_61_483)"/>
</g>
<path d="M47.544 24.92H44.424V32H41.352V15.2H44.424V22.232H47.64L52.464 15.2H55.776L50.04 23.336L55.992 32H52.464L47.544 24.92ZM69.8241 19.184V32H66.9681V30.368C66.4881 30.944 65.8881 31.392 65.1681 31.712C64.4641 32.016 63.6961 32.168 62.8641 32.168C61.1521 32.168 59.8001 31.696 58.8081 30.752C57.8161 29.792 57.3201 28.376 57.3201 26.504V19.184H60.3201V26.096C60.3201 27.248 60.5761 28.112 61.0881 28.688C61.6161 29.248 62.3681 29.528 63.3441 29.528C64.4001 29.528 65.2401 29.2 65.8641 28.544C66.5041 27.872 66.8241 26.912 66.8241 25.664V19.184H69.8241ZM73.8754 19.184H76.8754V24.392H83.3314V19.184H86.3314V32H83.3314V26.936H76.8754V32H73.8754V19.184ZM96.0639 32.168C94.7679 32.168 93.5999 31.888 92.5599 31.328C91.5199 30.768 90.7039 29.992 90.1119 29C89.5359 27.992 89.2479 26.856 89.2479 25.592C89.2479 24.328 89.5359 23.2 90.1119 22.208C90.7039 21.216 91.5199 20.44 92.5599 19.88C93.5999 19.32 94.7679 19.04 96.0639 19.04C97.3759 19.04 98.5519 19.32 99.5919 19.88C100.632 20.44 101.44 21.216 102.016 22.208C102.608 23.2 102.904 24.328 102.904 25.592C102.904 26.856 102.608 27.992 102.016 29C101.44 29.992 100.632 30.768 99.5919 31.328C98.5519 31.888 97.3759 32.168 96.0639 32.168ZM96.0639 29.6C97.1679 29.6 98.0799 29.232 98.7999 28.496C99.5199 27.76 99.8799 26.792 99.8799 25.592C99.8799 24.392 99.5199 23.424 98.7999 22.688C98.0799 21.952 97.1679 21.584 96.0639 21.584C94.9599 21.584 94.0479 21.952 93.3279 22.688C92.6239 23.424 92.2719 24.392 92.2719 25.592C92.2719 26.792 92.6239 27.76 93.3279 28.496C94.0479 29.232 94.9599 29.6 96.0639 29.6ZM112.396 24.92H109.276V32H106.204V15.2H109.276V22.232H112.492L117.316 15.2H120.628L114.892 23.336L120.844 32H117.316L112.396 24.92ZM128.173 32.168C126.877 32.168 125.709 31.888 124.669 31.328C123.629 30.768 122.813 29.992 122.221 29C121.645 27.992 121.357 26.856 121.357 25.592C121.357 24.328 121.645 23.2 122.221 22.208C122.813 21.216 123.629 20.44 124.669 19.88C125.709 19.32 126.877 19.04 128.173 19.04C129.485 19.04 130.661 19.32 131.701 19.88C132.741 20.44 133.549 21.216 134.125 22.208C134.717 23.2 135.013 24.328 135.013 25.592C135.013 26.856 134.717 27.992 134.125 29C133.549 29.992 132.741 30.768 131.701 31.328C130.661 31.888 129.485 32.168 128.173 32.168ZM128.173 29.6C129.277 29.6 130.189 29.232 130.909 28.496C131.629 27.76 131.989 26.792 131.989 25.592C131.989 24.392 131.629 23.424 130.909 22.688C130.189 21.952 129.277 21.584 128.173 21.584C127.069 21.584 126.157 21.952 125.437 22.688C124.733 23.424 124.381 24.392 124.381 25.592C124.381 26.792 124.733 27.76 125.437 28.496C126.157 29.232 127.069 29.6 128.173 29.6ZM154.153 19.04C155.769 19.04 157.049 19.512 157.993 20.456C158.937 21.384 159.409 22.784 159.409 24.656V32H156.409V25.04C156.409 23.92 156.161 23.08 155.665 22.52C155.169 21.944 154.457 21.656 153.529 21.656C152.521 21.656 151.713 21.992 151.105 22.664C150.497 23.32 150.193 24.264 150.193 25.496V32H147.193V25.04C147.193 23.92 146.945 23.08 146.449 22.52C145.953 21.944 145.241 21.656 144.313 21.656C143.289 21.656 142.473 21.984 141.865 22.64C141.273 23.296 140.977 24.248 140.977 25.496V32H137.977V19.184H140.833V20.816C141.313 20.24 141.913 19.8 142.633 19.496C143.353 19.192 144.153 19.04 145.033 19.04C145.993 19.04 146.841 19.224 147.577 19.592C148.329 19.944 148.921 20.472 149.353 21.176C149.881 20.504 150.561 19.984 151.393 19.616C152.225 19.232 153.145 19.04 154.153 19.04Z" fill="#102031"/>
<defs>
<linearGradient id="paint0_linear_61_483" x1="3.36535" y1="13.3234" x2="30.5466" y2="15.6252" gradientUnits="userSpaceOnUse">
<stop stop-color="#FF3B2F"/>
<stop offset="1" stop-color="#FF5F2D"/>
</linearGradient>
<clipPath id="clip0_61_483">
<rect width="28.3955" height="28.3955" fill="white" transform="translate(2 8)"/>
</clipPath>
</defs>
</svg>
